<?xml version="1.0" encoding="UTF-8"?>
<svg id="Capa_2" data-name="Capa 2" xmlns="http://www.w3.org/2000/svg" viewBox="0 0 512 180">
  <defs>
    <style>
      .cls-1 {
        fill: #284b63;
      }

      .cls-2 {
        fill: #353535;
      }
    </style>
  </defs>
  <g>
    <path class="cls-2" d="M214.27,97.34h-43.61V30.1h43.61v18.92h-23.63v7.91h20.9v13.6h-20.9v7.91h23.63v18.92Z"/>
    <path class="cls-2" d="M268.34,97.34h-43.61V30.1h19.98v48.33h23.63v18.92Z"/>
    <path class="cls-2" d="M304.6,99.33c-4.93,0-9.55-.92-13.85-2.77-4.3-1.85-8.08-4.4-11.33-7.65-3.25-3.25-5.8-7.04-7.65-11.35-1.85-4.32-2.78-8.93-2.78-13.83s.92-9.51,2.78-13.83c1.85-4.32,4.4-8.1,7.65-11.35,3.25-3.25,7.03-5.8,11.33-7.65,4.3-1.85,8.92-2.77,13.85-2.77s9.51.92,13.83,2.77,8.1,4.4,11.35,7.65c3.25,3.25,5.8,7.04,7.65,11.35,1.85,4.32,2.77,8.93,2.77,13.83s-.92,9.51-2.77,13.83c-1.85,4.32-4.4,8.1-7.65,11.35-3.25,3.25-7.04,5.8-11.35,7.65s-8.93,2.77-13.83,2.77ZM304.6,80.42c4.32,0,8-1.63,11.05-4.88,3.05-3.25,4.58-7.19,4.58-11.82s-1.53-8.56-4.58-11.82c-3.05-3.25-6.74-4.88-11.05-4.88s-8,1.63-11.05,4.88c-3.05,3.25-4.58,7.19-4.58,11.82s1.53,8.56,4.58,11.82c3.05,3.25,6.74,4.88,11.05,4.88Z"/>
    <path class="cls-2" d="M430.35,97.34h-19.98v-38.39l-17.11,38.39h-8.56l-17.11-38.39v38.39h-19.93V30.1h26.04l15.31,34.92,15.26-34.92h26.08v67.25Z"/>
    <path class="cls-2" d="M465.36,97.34h-19.98V30.1h19.98v67.25Z"/>
  </g>
  <g>
    <g>
      <path class="cls-1" d="M46.64,50.32l8.92,15.74c-1.46,22.93,2.27,40.55,19.91,55.99,3.9,3.41,20.74,14.65,25.3,15.38v14.45c-18.47-9.53-41.65-23.8-50.23-43.61-.96-2.22-3.9-10.13-3.9-12.03v-45.92Z"/>
      <path class="cls-1" d="M154.9,50.32l-8.92,15.74c1.46,22.93-2.27,40.55-19.91,55.99-3.9,3.41-20.74,14.65-25.3,15.38v14.45c18.47-9.53,41.65-23.8,50.23-43.61.96-2.22,3.9-10.13,3.9-12.03v-45.92Z"/>
    </g>
    <path class="cls-2" d="M100.77,77.2l.17-.27,12.05,23.27-12.22,21.01-2.38-4.39L47.48,28.13h25.12l28.18,49.07ZM128.95,28.13h25.46l-32.25,55.98-11.88-23.4,18.67-32.58Z"/>
    <polygon class="cls-1" points="91.99 28.11 112.99 47.22 99.19 44.05 91.99 55.56 91.99 28.11"/>
  </g>
  <g>
    <path class="cls-1" d="M189.32,151.89c-7.75,0-14-2.15-18.76-6.46l8.98-9.35c1.21,1.21,2.58,2.04,4.12,2.49,1.8.49,3.69.74,5.66.74,1.48,0,2.7-.28,3.66-.83.8-.45,1.2-1.06,1.2-1.81,0-.72-.32-1.31-.97-1.77-.65-.46-1.5-.85-2.57-1.17-1.07-.32-2.27-.63-3.6-.94-1.7-.37-3.44-.84-5.23-1.4-1.78-.56-3.44-1.35-4.97-2.35-1.53-1-2.77-2.34-3.72-4.01-.95-1.67-1.43-3.84-1.43-6.51,0-4.29,1.64-7.67,4.92-10.15,3.4-2.56,7.82-3.85,13.26-3.85,7.75,0,13.99,2.15,18.73,6.46l-8.95,9.35c-1.23-1.21-2.6-2.04-4.12-2.49-1.8-.49-3.69-.74-5.66-.74-1.5,0-2.73.28-3.69.83-.8.45-1.2,1.06-1.2,1.82,0,.72.32,1.31.97,1.77.65.46,1.51.85,2.58,1.17,1.08.32,2.27.63,3.58.94,1.7.37,3.44.84,5.23,1.4,1.78.56,3.44,1.35,4.98,2.35,1.54,1,2.78,2.34,3.74,4.01.95,1.67,1.43,3.84,1.43,6.51,0,4.29-1.65,7.67-4.95,10.15-3.4,2.56-7.81,3.84-13.23,3.84Z"/>
    <path class="cls-1" d="M234.16,150.57h-13.29v-32.14h-10v-12.58h33.28v12.58h-10v32.14Z"/>
    <path class="cls-1" d="M268.49,151.89c-3.28,0-6.35-.62-9.21-1.85-2.86-1.23-5.37-2.93-7.54-5.09-2.16-2.16-3.86-4.68-5.09-7.55-1.23-2.87-1.85-5.94-1.85-9.2s.62-6.33,1.85-9.2c1.23-2.87,2.93-5.39,5.09-7.55s4.68-3.86,7.54-5.09c2.86-1.23,5.93-1.85,9.21-1.85s6.33.62,9.2,1.85c2.87,1.23,5.39,2.93,7.55,5.09,2.16,2.16,3.86,4.68,5.09,7.55,1.23,2.87,1.85,5.94,1.85,9.2s-.62,6.33-1.85,9.2c-1.23,2.87-2.93,5.39-5.09,7.55s-4.68,3.86-7.55,5.09c-2.87,1.23-5.94,1.85-9.2,1.85ZM268.49,139.31c2.87,0,5.32-1.08,7.35-3.24,2.03-2.16,3.04-4.78,3.04-7.86s-1.02-5.69-3.04-7.86c-2.03-2.16-4.48-3.24-7.35-3.24s-5.32,1.08-7.35,3.24c-2.03,2.16-3.04,4.78-3.04,7.86s1.02,5.69,3.04,7.86c2.03,2.16,4.48,3.24,7.35,3.24Z"/>
    <path class="cls-1" d="M340.37,150.57h-14.03l-8.18-14.3h-7.41v14.3h-13.29v-44.72h24.27c5.66,0,9.9,1.27,12.73,3.81,2.89,2.6,4.34,6.4,4.34,11.38,0,6.62-2.53,11.11-7.6,13.47l9.17,16.06ZM321.73,124.89c2.5,0,3.75-1.08,3.75-3.23s-1.25-3.23-3.75-3.23h-10.98v6.46h10.98Z"/>
    <path class="cls-1" d="M373.83,150.57h-29v-44.72h29v12.58h-15.72v5.26h13.9v9.04h-13.9v5.26h15.72v12.58Z"/>
  </g>
</svg>