<?xml version="1.0" encoding="UTF-8"?>
<svg id="Capa_5" data-name="Capa 5" xmlns="http://www.w3.org/2000/svg" viewBox="0 0 512 512">
  <defs>
    <style>
      .cls-1 {
        fill: #284b63;
      }

      .cls-2 {
        fill: #e6e6e6;
      }
    </style>
  </defs>
  <g>
    <path class="cls-1" d="M81.05,127.77l28.84,50.88c-4.71,74.1,7.33,131.06,64.34,180.94,12.6,11.03,67.02,47.36,81.77,49.72v46.69c-59.68-30.81-134.61-76.91-162.33-140.94-3.1-7.16-12.62-32.75-12.62-38.89V127.77Z"/>
    <path class="cls-1" d="M430.95,127.77l-28.84,50.88c4.71,74.1-7.33,131.06-64.34,180.94-12.6,11.03-67.02,47.36-81.77,49.72v46.69c59.68-30.81,134.61-76.91,162.33-140.94,3.1-7.16,12.62-32.75,12.62-38.89V127.77Z"/>
  </g>
  <path class="cls-2" d="M256,214.65l.55-.86,38.95,75.21-39.5,67.9-7.68-14.18L83.75,56.07h81.19l91.06,158.58ZM347.06,56.07h82.28l-104.23,180.92-38.4-75.64,60.34-105.29Z"/>
  <polygon class="cls-1" points="227.61 56 295.5 117.76 250.89 107.52 227.61 144.72 227.61 56"/>
</svg>